<?xml version="1.0" encoding="utf-8"?>
<!-- Generator: Adobe Illustrator 17.0.0, SVG Export Plug-In . SVG Version: 6.00 Build 0)  -->
<!DOCTYPE svg PUBLIC "-//W3C//DTD SVG 1.1//EN" "http://www.w3.org/Graphics/SVG/1.1/DTD/svg11.dtd">
<svg version="1.1" id="Layer_1" xmlns="http://www.w3.org/2000/svg" xmlns:xlink="http://www.w3.org/1999/xlink" x="0px" y="0px"
	 width="100px" height="100px" viewBox="0 0 100 100" enable-background="new 0 0 100 100" xml:space="preserve">
<g>
	<path d="M30.197,25.769c2.214,0,3.444-0.861,3.69-1.476c0.614-1.107,0.737-5.166,0.737-7.626c0-1.107,0-1.845-0.491-2.214
		c-1.107-0.861-2.338-1.476-3.69-1.476c-1.476,0-3.075,0.369-4.305,1.476c-0.369,0.369-0.615,0.861-0.615,2.091
		c0,2.337,0.369,6.642,0.984,7.749C26.752,24.908,27.983,25.769,30.197,25.769z"/>
	<path d="M33.149,51.353h8.61c1.721,0,3.075-1.353,3.075-3.075c0-1.599-1.353-2.952-3.075-2.952h-7.503l1.476-8.61
		c0.123-0.615,0.123-1.353,0.123-1.968c0-4.059-2.46-6.519-6.765-6.519c-4.183,0-6.643,3.075-7.258,6.396l-3.197,20.418
		l-2.583,14.022L6.58,78.413c-0.615,0.615-0.984,1.353-0.984,2.214c0,0.861,0.369,1.722,0.861,2.337l1.968,1.968l12.671-11.685
		c0.614-0.492,0.983-1.353,1.229-1.968l2.952-12.792c0.123-0.492,0.861-0.492,0.984,0l7.38,26.322
		c0.369,1.353,1.352,2.214,2.952,2.214h4.428l-8.487-32.226L33.149,51.353z"/>
	<path d="M64.76,27.491c2.214,0,3.321-0.861,3.567-1.353c0.614-1.107,0.86-5.166,0.86-7.626c0-1.23,0-1.845-0.369-2.337
		c-1.106-0.861-2.46-1.476-3.689-1.476c-1.6,0-3.075,0.369-4.429,1.476c-0.491,0.492-0.491,0.984-0.491,2.091
		c0,2.46,0.246,6.765,0.86,7.872C61.316,26.63,62.669,27.491,64.76,27.491z"/>
	<path d="M60.824,46.31c-2.46,0-4.92,0.492-7.134,1.353l-0.983-4.059c-0.123-0.369,0-0.738,0.368-1.107l3.198-3.321
		c0.369-0.492,0.861-0.369,0.984,0.369l0.492,4.674c0.737-0.123,2.091-0.246,3.074-0.246c4.306,0,7.995,1.23,11.439,3.321
		l-1.845-12.669c-0.246-2.091-1.723-3.813-3.813-4.059l-6.026-0.861c-0.492-0.123-0.984-0.123-1.354-0.123
		c-1.599,0-2.583,0.615-3.567,1.722l-7.503,7.134c-1.229,1.23-1.599,2.46-1.599,3.69c0,0.615,0.123,1.23,0.246,1.722l1.845,6.519
		c-4.92,3.69-8.241,9.471-8.241,16.359c0,10.947,9.103,20.295,20.418,20.295c11.07,0,20.05-9.348,20.05-20.295
		C80.874,55.412,71.894,46.31,60.824,46.31z M60.823,81.488c-7.995,0-14.514-6.519-14.514-14.514c0-4.182,1.722-7.872,4.551-10.578
		c0.493,0.492,1.108,0.738,1.723,0.738c1.968,0,2.583-1.23,2.583-2.583l-0.123-0.861c1.721-0.738,3.689-1.23,5.78-1.23
		c7.995,0,14.515,6.519,14.515,14.514S68.818,81.488,60.823,81.488z"/>
	<path d="M90.713,58.487c-0.123-2.214-2.46-3.813-5.043-3.813h-5.535c1.968,2.829,2.706,5.781,3.444,9.102l3.566,14.637
		c0.369,1.599,1.107,1.845,2.215,1.599l4.182-0.984c0.615,0,0.861-0.615,0.861-1.107L90.713,58.487z"/>
</g>
</svg>
